#!OML:ASF H:\IndianDance\Patient Classification 1\Patient 1\Session 1\dancer.ASF
:FULLY-SPECIFIED
:DEGREES
2813
root -1.74723 14.5195 17.215 -172.212 -0.863538 -177.848
lowerback 9.66453 -5.38066 -8.56229
upperback -6.48349 -8.49959 2.93521
thorax -10.8239 -3.391 9.53005
lowerneck -7.19251 -14.8965 -9.52032
upperneck 11.0139 -20.2298 9.92018
head 6.49722 -9.55639 2.72733
rclavicle 7.88305e-014 1.94809e-014
rhumerus -5.75659 19.4396 -27.2075
rradius 81.845
rwrist -36.2575
rhand -37.5489 -1.30081
rfingers 7.12502
rthumb -10.6042 -31.0133
lclavicle 7.88305e-014 1.94809e-014
lhumerus 35.8219 4.49777 1.82368
lradius 94.7493
lwrist 67.8036
lhand -14.487 -337.868
lfingers 7.12502
lthumb 11.6595 771.788
rfemur -29.7985 -24.2319 11.9521
rtibia 50.4807
rfoot -18.2778 -10.5447
rtoes -6.1166
lfemur -49.5953 36.1693 -7.96276
ltibia 81.9342
lfoot 9.92024 -4.94655
ltoes 11.6272
2814
root -1.63139 14.5228 17.2188 -172.439 -1.23317 -177.318
lowerback 10.2299 -5.53389 -8.87918
upperback -6.51812 -8.77428 3.28226
thorax -11.0484 -3.45903 10.2172
lowerneck -7.08717 -14.9449 -9.52148
upperneck 11.0035 -20.2935 9.85989
head 6.47586 -9.5957 2.70962
rclavicle -5.26904e-014 1.23246e-014
rhumerus -3.62764 19.5583 -25.2859
rradius 74.4899
rwrist -26.505
rhand -40.3033 0.706235
rfingers 7.12502
rthumb -13.2601 -28.852
lclavicle -5.26904e-014 1.23246e-014
lhumerus 36.6745 6.77861 0.386452
lradius 91.0019
lwrist 66.2991
lhand -14.6672 -337.793
lfingers 7.12502
lthumb 11.4857 771.873
rfemur -29.7082 -25.3929 13.0329
rtibia 50.7157
rfoot -18.58 -10.0669
rtoes -5.82293
lfemur -51.849 37.953 -7.78374
ltibia 86.6064
lfoot 11.5816 -5.38459
ltoes 13.6711
2815
root -1.52147 14.5146 17.2251 -172.783 -1.32329 -176.558
lowerback 10.884 -5.66077 -8.98409
upperback -6.49783 -8.97959 3.69295
thorax -11.2907 -3.50472 10.8657
lowerneck -7.04304 -14.9052 -9.55108
upperneck 11.0356 -20.2366 9.8289
head 6.47284 -9.57273 2.71416
rclavicle -3.40419e-014 -9.74045e-015
rhumerus -1.16522 19.5428 -23.6128
rradius 67.5799
rwrist -17.2302
rhand -43.4406 -4.61722
rfingers 7.12502
rthumb -16.2826 -33.9536
lclavicle -3.40419e-014 -9.74045e-015
lhumerus 37.8567 8.86974 -0.696574
lradius 86.6313
lwrist 65.2216
lhand -14.8068 -337.721
lfingers 7.12502
lthumb 11.3511 771.952
rfemur -29.5617 -26.0696 14.2946
rtibia 50.9406
rfoot -18.8828 -9.90443
rtoes -6.02464
lfemur -53.8258 40.2221 -7.28969
ltibia 91.5238
lfoot 11.7578 -7.4306
ltoes 10.4168
2816
root -1.42313 14.5118 17.2333 -173.209 -1.1126 -175.76
lowerback 11.6369 -5.63985 -9.01864
upperback -6.45132 -8.98434 4.06851
thorax -11.6244 -3.45048 11.4318
lowerneck -7.11688 -14.895 -9.60802
upperneck 11.2097 -20.2179 9.7767
head 6.53892 -9.56139 2.69746
rclavicle 9.81499e-016 8.15017e-015
rhumerus 1.0728 19.2122 -22.2134
rradius 60.4921
rwrist -8.55673
rhand -45.4688 -5.56864
rfingers 7.12502
rthumb -18.2347 -34.7339
lclavicle 9.81499e-016 8.15017e-015
lhumerus 38.9986 10.8109 -1.69951
lradius 82.4702
lwrist 65.0095
lhand -15.3154 -337.547
lfingers 7.12502
lthumb 10.8606 772.152
rfemur -29.3128 -26.316 15.5092
rtibia 51.0991
rfoot -19.1288 -9.74925
rtoes -5.9203
lfemur -55.4133 42.7957 -6.52117
ltibia 96.579
lfoot 11.0543 -10.4355
ltoes 4.9824
2817
root -1.33547 14.5083 17.2439 -173.489 -0.670785 -175.19
lowerback 12.2508 -5.53598 -9.14506
upperback -6.472 -8.90121 4.34138
thorax -11.9814 -3.34807 11.9125
lowerneck -7.08921 -14.8932 -9.61678
upperneck 11.3422 -20.2142 9.69804
head 6.56846 -9.56188 2.67405
rclavicle 5.34482e-014 -5.96354e-016
rhumerus 3.13121 18.6419 -21.0316
rradius 53.5287
rwrist -1.19393
rhand -47.0191 -3.96665
rfingers 7.12502
rthumb -19.7257 -32.9858
lclavicle 5.34482e-014 -5.96354e-016
lhumerus 40.4086 12.4445 -2.42877
lradius 78.1745
lwrist 64.9098
lhand -16.2418 -338.031
lfingers 7.12502
lthumb 9.96684 771.713
rfemur -29.2489 -26.3223 16.452
rtibia 51.2646
rfoot -19.4099 -9.37492
rtoes -5.26752
lfemur -56.9563 45.7981 -6.10876
ltibia 101.708
lfoot 9.84755 -12.6328
ltoes 4.17839
2818
root -1.25552 14.5093 17.2522 -173.719 0.0191567 -174.811
lowerback 12.7693 -5.60725 -9.40922
upperback -6.47196 -8.66581 4.53576
thorax -12.2633 -3.00068 12.294
lowerneck -7.23195 -14.9705 -9.64106
upperneck 11.7411 -20.3089 9.4915
head 6.70864 -9.6048 2.58043
rclavicle 6.28905e-014 -1.59028e-014
rhumerus 4.9421 17.5546 -20.2064
rradius 46.9173
rwrist 5.22559
rhand -48.472 2.48266
rfingers 7.12502
rthumb -21.1218 -26.3868
lclavicle 6.28905e-014 -1.59028e-014
lhumerus 41.8372 13.8445 -3.12115
lradius 73.9831
lwrist 64.4178
lhand -17.1853 -338.656
lfingers 7.12502
lthumb 9.05655 771.13
rfemur -29.2047 -26.0919 17.1904
rtibia 51.374
rfoot -19.547 -8.96148
rtoes -4.85605
lfemur -58.1813 49.2694 -5.89321
ltibia 106.777
lfoot 8.0535 -14.5925
ltoes 2.04644
2819
root -1.1828 14.5142 17.2614 -173.847 0.802909 -174.645
lowerback 13.175 -5.35493 -9.72008
upperback -6.51605 -8.41584 4.6126
thorax -12.5811 -2.8111 12.5976
lowerneck -7.47766 -15.0515 -9.56265
upperneck 12.1026 -20.3982 9.19615
head 6.8332 -9.64584 2.44154
rclavicle -1.23731e-013 -3.97569e-016
rhumerus 6.06045 15.9776 -19.7422
rradius 41.728
rwrist 11.1173
rhand -48.1508 6.22448
rfingers 7.12502
rthumb -20.8133 -22.6792
lclavicle -1.23731e-013 -3.97569e-016
lhumerus 43.2966 15.0789 -3.61533
lradius 69.8903
lwrist 63.0121
lhand -17.8802 -339.612
lfingers 7.12502
lthumb 8.38594 770.202
rfemur -29.2865 -25.6766 17.7108
rtibia 51.4902
rfoot -19.6207 -9.09407
rtoes -5.50103
lfemur -59.0962 53.0354 -5.71145
ltibia 111.751
lfoot 7.19084 -16.0124
ltoes 4.12654
2820
root -1.11843 14.5219 17.2654 -173.887 1.61395 -174.714
lowerback 13.3823 -5.09515 -10.0666
upperback -6.55352 -8.16062 4.58435
thorax -12.7882 -2.63502 12.7629
lowerneck -7.71622 -15.1203 -9.61659
upperneck 12.3765 -20.4775 9.09017
head 6.96262 -9.67681 2.37897
rclavicle -3.47376e-014 1.09332e-014
rhumerus 7.03722 14.6113 -19.1411
rradius 37.1782
rwrist 16.5796
rhand -48.7988 11.1859
rfingers 7.12502
rthumb -21.4358 -17.6482
lclavicle -3.47376e-014 1.09332e-014
lhumerus 44.6751 16.2303 -4.06021
lradius 66.0274
lwrist 60.6673
lhand -18.0911 -340.595
lfingers 7.12502
lthumb 8.18241 769.227
rfemur -29.4329 -25.1557 17.952
rtibia 51.566
rfoot -19.6201 -9.12905
rtoes -6.16592
lfemur -59.6655 57.128 -5.6854
ltibia 116.568
lfoot 6.4923 -17.1807
ltoes 5.46196
2821
root -1.05347 14.5352 17.2646 -173.861 2.5101 -174.873
lowerback 13.43 -4.79758 -10.4988
upperback -6.58701 -7.86434 4.49654
thorax -12.9079 -2.44542 12.8732
lowerneck -7.95127 -15.1731 -9.56183
upperneck 12.5365 -20.541 8.99086
head 7.04275 -9.69875 2.31088
rclavicle -1.45858e-014 -1.11319e-014
rhumerus 7.5613 13.507 -18.6587
rradius 33.5181
rwrist 21.1126
rhand -49.2719 13.4722
rfingers 7.12502
rthumb -21.8901 -15.3095
lclavicle -1.45858e-014 -1.11319e-014
lhumerus 45.9914 17.3011 -4.43148
lradius 62.4227
lwrist 57.7619
lhand -17.8527 -340.954
lfingers 7.12502
lthumb 8.41246 768.858
rfemur -29.6327 -24.4526 18.1184
rtibia 51.6611
rfoot -19.644 -9.10537
rtoes -5.91051
lfemur -59.6066 61.7031 -5.25987
ltibia 121.163
lfoot 6.33113 -18.351
ltoes 7.41661
